<?xml version="1.0" encoding="UTF-8"?>
<svg width="64px" height="64px" viewBox="0 0 64 64" version="1.1" xmlns="http://www.w3.org/2000/svg" xmlns:xlink="http://www.w3.org/1999/xlink">
    <title>C5956466-D004-4454-8631-B147F7C35D3D</title>
    <defs>
        <polygon id="path-1" points="-1.11022302e-16 0 21.2836296 0 21.2836296 27.8829 -1.11022302e-16 27.8829"></polygon>
        <path d="M11.3907917,0 L11.5010188,0.0010759244 L11.6101653,0 L11.6101653,0 L11.7116983,0.000827819739 C13.127362,0.0230004901 21.0112974,0.560915253 22.8436031,9.72420471 C22.8436031,9.72420471 25.2145663,18.7512104 11.4934542,30 C1.47704241,21.7883836 0.0441598653,14.7607558 0.000599715369,11.5644637 L-4.39474845e-14,11.3104367 C0.00930378825,10.2883926 0.158434565,9.72420471 0.158434565,9.72420471 C1.9907403,0.560915253 9.87467573,0.0230004901 11.2893429,0.000827819739 L11.3907917,0 Z M11.6101653,1.6138866 L11.5691003,1.6138866 L11.5075028,1.61496252 L11.4513086,1.61496252 L11.3907917,1.6138866 C10.0615827,1.6138866 3.35177837,2.02058602 1.74808219,10.0394506 L1.74808219,10.0394506 L1.72538838,10.1352078 C1.72229769,10.1489366 1.63771763,10.5353123 1.62989032,11.2354143 L1.62977744,11.4340853 C1.65546376,14.0479885 2.7687851,20.3419431 11.4934542,27.8868845 C20.219766,20.3411254 21.3403476,14.0463531 21.3670523,11.4245476 L21.3670067,11.2252379 C21.3593767,10.522739 21.2744448,10.1333572 21.2701654,10.1158412 L21.2701654,10.1158412 L21.2539555,10.0394506 C19.6502593,2.02058602 12.9393744,1.6138866 11.6101653,1.6138866 L11.6101653,1.6138866 Z M11.4995059,5.71552559 C14.6690753,5.71552559 17.2388795,8.27407381 17.2388795,11.4297601 C17.2388795,14.5854463 14.6690753,17.1439945 11.4995059,17.1439945 C8.32993659,17.1439945 5.76013234,14.5854463 5.76013234,11.4297601 C5.76013234,8.27407381 8.32993659,5.71552559 11.4995059,5.71552559 Z M11.4995059,7.32941219 C9.22904388,7.32941219 7.38111904,9.16924291 7.38111904,11.4297601 C7.38111904,13.6902772 9.22904388,15.530108 11.4995059,15.530108 C13.769968,15.530108 15.6178928,13.6902772 15.6178928,11.4297601 C15.6178928,9.16924291 13.769968,7.32941219 11.4995059,7.32941219 Z" id="path-3"></path>
    </defs>
    <g id="Symbols" stroke="none" stroke-width="1" fill="none" fill-rule="evenodd">
        <g id="outlined" transform="translate(21.000000, 18.000000)">
            <g id="Group-3" transform="translate(0.999580, 1.000100)">
                <mask id="mask-2" fill="white">
                    <use xlink:href="#path-1"></use>
                </mask>
                <g id="Clip-2"></g>
            </g>
            <g id="swatches/black">
                <mask id="mask-4" fill="white">
                    <use xlink:href="#path-3"></use>
                </mask>
                <use id="Mask" fill="#282828" xlink:href="#path-3"></use>
                <g mask="url(#mask-4)" fill="#000000" id="Rectangle">
                    <g transform="translate(-20.000420, -16.999900)">
                        <rect x="0" y="0" width="64" height="64"></rect>
                    </g>
                </g>
            </g>
        </g>
    </g>
</svg>