<?xml version="1.0" encoding="UTF-8"?>
<svg width="64px" height="64px" viewBox="0 0 64 64" version="1.1" xmlns="http://www.w3.org/2000/svg" xmlns:xlink="http://www.w3.org/1999/xlink">
    <title>35E305C3-F4D9-419E-96A8-4E8345ECFDC9</title>
    <defs>
        <path d="M14.55,0 C14.6951583,0 14.8346053,0.0457763912 14.9509355,0.129741233 L15.0335767,0.199756638 L21.1011862,6.26737115 C21.202871,6.37014935 21.2691009,6.50163232 21.2915255,6.64270044 L21.3,6.75 L21.3,24.95 C21.3,25.7532228 20.6760376,26.4218087 19.8902535,26.4936169 L19.75,26.5 L1.55,26.5 C0.746777212,26.5 0.0781912951,25.8760376 0.00638305374,25.0902535 L0,24.95 L0,1.55 C0,0.746777212 0.623962428,0.0781912951 1.40974648,0.00638305374 L1.55,0 L14.55,0 Z M14.266,1.366 L1.55,1.36666667 C1.46216362,1.36666667 1.39753211,1.41373089 1.37519297,1.48877187 L1.36666667,1.55 L1.36666667,24.95 C1.36666667,25.0378364 1.41373089,25.1024679 1.48877187,25.124807 L1.55,25.1333333 L19.75,25.1333333 C19.8378364,25.1333333 19.9024679,25.0862691 19.924807,25.0112281 L19.9333333,24.95 L19.933,7.033 L14.266,1.366 Z M16.2833333,16.4666667 C16.6614712,16.4666667 16.9666667,16.7718621 16.9666667,17.15 C16.9666667,17.4937617 16.714439,17.7772404 16.3844789,17.825941 L16.2833333,17.8333333 L5.01666667,17.8333333 C4.63852881,17.8333333 4.33333333,17.5281379 4.33333333,17.15 C4.33333333,16.8062383 4.585561,16.5227596 4.91552114,16.474059 L5.01666667,16.4666667 L16.2833333,16.4666667 Z M16.2833333,13 C16.6614712,13 16.9666667,13.3051955 16.9666667,13.6833333 C16.9666667,14.027095 16.714439,14.3105737 16.3844789,14.3592743 L16.2833333,14.3666667 L5.01666667,14.3666667 C4.63852881,14.3666667 4.33333333,14.0614712 4.33333333,13.6833333 C4.33333333,13.3395716 4.585561,13.0560929 4.91552114,13.0073923 L5.01666667,13 L16.2833333,13 Z M16.2833333,9.53333333 C16.6614712,9.53333333 16.9666667,9.83852881 16.9666667,10.2166667 C16.9666667,10.5604284 16.714439,10.8439071 16.3844789,10.8926077 L16.2833333,10.9 L5.01666667,10.9 C4.63852881,10.9 4.33333333,10.5948045 4.33333333,10.2166667 C4.33333333,9.87290498 4.585561,9.58942625 4.91552114,9.54072567 L5.01666667,9.53333333 L16.2833333,9.53333333 Z M13.6798348,1.7333117 C14.0329504,1.7283696 14.3203871,1.98598723 14.3616517,2.32294087 L14.3666667,2.41666667 L14.3666667,5.88333333 C14.3666667,5.97116972 14.4137309,6.03580122 14.4887719,6.05814037 L14.55,6.06666667 L18.0166667,6.06666667 C18.4242238,6.06666667 18.6963536,6.37444773 18.6972933,6.749375 C18.6981451,7.09106381 18.473513,7.37675506 18.1248763,7.42587505 L18.0166667,7.43333333 L14.55,7.43333333 C13.7467717,7.43333333 13.0781506,6.80936572 13.0063385,6.02358599 L12.9999107,5.88333333 L12.9999806,2.42024253 C12.9950759,2.07736902 13.2488478,1.79477383 13.57863,1.74206171 L13.6798348,1.7333117 Z" id="path-1"></path>
    </defs>
    <g id="Symbols" stroke="none" stroke-width="1" fill="none" fill-rule="evenodd">
        <g id="swatches/black" transform="translate(21.750000, 18.750000)">
            <mask id="mask-2" fill="white">
                <use xlink:href="#path-1"></use>
            </mask>
            <use id="Mask" fill="#000000" fill-rule="nonzero" xlink:href="#path-1"></use>
            <g mask="url(#mask-2)" fill="#000000" id="Rectangle">
                <g transform="translate(-21.750000, -18.750000)">
                    <rect x="0" y="0" width="64" height="64"></rect>
                </g>
            </g>
        </g>
    </g>
</svg>