<?xml version="1.0" encoding="UTF-8"?>
<svg width="212px" height="32px" viewBox="0 0 212 32" version="1.1" xmlns="http://www.w3.org/2000/svg" xmlns:xlink="http://www.w3.org/1999/xlink">
    <title>social media logo</title>
    <defs>
        <path d="M19.2830769,7.68 C21.9507692,7.68 24.1208205,9.93706667 24.1208205,12.71104 L24.1208205,19.0818133 C24.1208205,21.8557867 21.9507692,24.11264 19.2830769,24.11264 L13.1575385,24.11264 C10.4900513,24.11264 8.32,21.8557867 8.32,19.0818133 L8.32,12.71104 C8.32,9.93706667 10.4900513,7.68 13.1575385,7.68 L19.2830769,7.68 Z M19.2830769,8.91050667 L13.1575385,8.91050667 C11.1425641,8.91050667 9.50317949,10.6154667 9.50317949,12.71104 L9.50317949,19.0818133 C9.50317949,21.1773867 11.1425641,22.8823467 13.1575385,22.8823467 L19.2830769,22.8823467 C21.2984615,22.8823467 22.9378462,21.1773867 22.9378462,19.0818133 L22.9378462,12.71104 C22.9378462,10.6154667 21.2984615,8.91050667 19.2830769,8.91050667 Z M16.32,12.3392 C18.525502,12.3392 20.32,14.1305759 20.32,16.3329025 C20.32,18.5348191 18.525502,20.3264 16.32,20.3264 C14.1142928,20.3264 12.32,18.5348191 12.32,16.3329025 C12.32,14.1305759 14.1142928,12.3392 16.32,12.3392 Z M16.32,13.549711 C14.782944,13.549711 13.532482,14.7981401 13.532482,16.3329025 C13.532482,17.8672549 14.782944,19.115889 16.32,19.115889 C17.857056,19.115889 19.107518,17.8672549 19.107518,16.3329025 C19.107518,14.7981401 17.857056,13.549711 16.32,13.549711 Z M20.6533333,10.3424 C21.2056692,10.3424 21.6533333,10.7893478 21.6533333,11.3408 C21.6533333,11.8922522 21.2056692,12.3392 20.6533333,12.3392 C20.1009974,12.3392 19.6533333,11.8922522 19.6533333,11.3408 C19.6533333,10.7893478 20.1009974,10.3424 20.6533333,10.3424 Z" id="path-1"></path>
     </defs>
    <g id="social-media-logo" stroke="none" stroke-width="1" fill="none" fill-rule="evenodd">
        <g id="logo/social-fb" fill="#FFFFFF">
            <path d="M21.12,7.17384615 L21.12,10.1184615 L19.3755556,10.1184615 C18.0088889,10.1184615 17.7533333,10.7765385 17.7533333,11.7246154 L17.7533333,13.8326923 L21.0088889,13.8326923 L20.5755556,17.1342308 L17.7533333,17.1342308 L17.7533333,25.6 L14.3533333,25.6 L14.3533333,17.1342308 L11.52,17.1342308 L11.52,13.8326923 L14.3533333,13.8326923 L14.3533333,11.4011538 C14.3533333,8.57923077 16.0755556,7.04 18.5866667,7.04 C19.7866667,7.04 20.82,7.12923077 21.12,7.17384615 Z" id="Facebook---FontAwesome"></path>
        </g>
        <g id="logo/social-fb-copy" transform="translate(42.000000, 0.000000)">
            <mask id="mask-2" fill="white">
                <use xlink:href="#path-1"></use>
            </mask>
            <use id="Combined-Shape" fill="#FFFFFF" xlink:href="#path-1"></use>
            <g id="Group" mask="url(#mask-2)" fill="#FFFFFF">
                <g id="swatches/white">
                    <rect id="Rectangle" x="0" y="0" width="32" height="32"></rect>
                </g>
            </g>
        </g>
        <g xmlns="http://www.w3.org/2000/svg" transform="translate(90)">
            <path style=" stroke:none;fill-rule:nonzero;fill:rgb(100%,100%,100%);fill-opacity:1;" d="M 18.929688 13.550781 L 30.773438 0 L 27.964844 0 L 17.683594 11.765625 L 9.472656 0 L 0 0 L 12.417969 17.789062 L 0 32 L 2.804688 32 L 13.664062 19.574219 L 22.335938 32 L 31.808594 32 Z M 15.085938 17.949219 L 13.828125 16.179688 L 3.816406 2.078125 L 8.128906 2.078125 L 16.207031 13.457031 L 17.464844 15.226562 L 27.96875 30.015625 L 23.65625 30.015625 Z M 15.085938 17.949219 "/>
        </g>
        <path d="M140.300484,18.7568254 L145.270028,16.2171429 L140.300484,13.6469841 L140.300484,18.7568254 Z M142.2,10 C146.070905,10 148.637818,10.1828571 148.637818,10.1828571 C148.997186,10.2234921 149.787795,10.2234921 150.485995,10.9549206 C150.485995,10.9549206 151.050716,11.5034921 151.214998,12.7631746 C151.410084,14.2361905 151.399909,15.7092063 151.399909,15.7092063 L151.399909,17.0907937 C151.399909,17.0907937 151.410084,18.5638095 151.214998,20.0368254 C151.050716,21.2863492 150.485995,21.8450794 150.485995,21.8450794 C149.787795,22.5663492 148.997186,22.5663492 148.637818,22.6069841 C148.637818,22.6069841 146.070905,22.8 142.2,22.8 C137.415274,22.7593651 135.947,22.6171429 135.947,22.6171429 C135.536294,22.5460317 134.612205,22.5663492 133.914005,21.8450794 C133.914005,21.8450794 133.349284,21.2863492 133.185002,20.0368254 C132.989916,18.5638095 133.000091,17.0907937 133.000091,17.0907937 L133.000091,15.7092063 C133.000091,15.7092063 132.989916,14.2361905 133.185002,12.7631746 C133.349284,11.5034921 133.914005,10.9549206 133.914005,10.9549206 C134.612205,10.2234921 135.402814,10.2234921 135.762182,10.1828571 C135.762182,10.1828571 138.329095,10 142.2,10 Z" id="YouTube-Play---FontAwesome" fill="#FFFFFF"></path>
        <g id="linkedin" transform="translate(178.000000, 8.000000)" fill="#FFFFFF" fill-rule="nonzero">
            <path d="M0,8.352 L0,16 L4,16 L4,5.6 L0,5.6 L0,8.352 Z M15.904,8.8 C15.648,6.816 14.72,5.6 11.904,5.6 C10.272,5.6 9.152,6.176 8.704,7.008 L8.64,7.008 L8.64,5.6 L5.6,5.6 L5.6,16 L8.8,16 L8.8,10.848 C8.8,9.504 9.088,8.192 10.848,8.192 C12.608,8.192 12.736,9.728 12.736,10.944 L12.736,16 L16,16 L16,10.304 C16,9.76 15.968,9.248 15.904,8.8 Z M2.016,0 C0.896,0 0,0.896 0,1.984 C0,3.072 0.896,3.968 2.016,3.968 C3.136,3.968 4,3.072 4,1.984 C4,0.896 3.104,0 2.016,0 Z" id="Shape"></path>
        </g>
    </g>
</svg>