<svg width="212" height="32" viewBox="0 0 212 32" xmlns="http://www.w3.org/2000/svg" xmlns:xlink="http://www.w3.org/1999/xlink">
    <defs>
        <path d="M20.31 7.13v2.856H18.62c-1.326 0-1.574.638-1.574 1.557v2.045h3.158l-.42 3.202h-2.738V25h-3.297v-8.21H11v-3.202h2.748V11.23c0-2.737 1.67-4.23 4.105-4.23 1.164 0 2.166.087 2.457.13z" id="uapeb5281a"/>
        <path d="M16.531 7h.238l.62.002c1.235.005 1.587.019 2.325.053.958.044 1.613.194 2.184.417.593.23 1.094.538 1.595 1.04a4.439 4.439 0 0 1 1.035 1.591c.22.57.374 1.226.418 2.185.038.848.052 1.186.054 2.945v1.53c-.002 1.3-.01 1.825-.029 2.352l-.007.188a98.03 98.03 0 0 1-.018.406c-.044.959-.194 1.614-.418 2.185a4.414 4.414 0 0 1-1.039 1.595 4.413 4.413 0 0 1-1.595 1.04c-.57.219-1.225.373-2.184.417-.885.04-1.215.053-3.182.054h-1.055c-1.968-.001-2.298-.014-3.183-.054-.958-.044-1.613-.194-2.184-.418a4.413 4.413 0 0 1-1.595-1.039 4.414 4.414 0 0 1-1.04-1.595c-.219-.571-.372-1.226-.416-2.185L7 15.999v-.987c.004-1.568.018-1.913.055-2.724.044-.959.194-1.614.417-2.185.23-.59.538-1.094 1.039-1.592a4.414 4.414 0 0 1 1.595-1.039c.57-.223 1.226-.377 2.188-.417.737-.034 1.09-.048 2.325-.053l.62-.002h.238zm-.53 1.621h-.538l-.673.001a56.71 56.71 0 0 0-1.725.021l-.19.007-.511.022c-.879.04-1.354.187-1.672.311-.421.165-.721.359-1.036.674a2.805 2.805 0 0 0-.673 1.035c-.124.319-.27.794-.311 1.673l-.051 3.637v1.211c.003.867.009 1.312.022 1.725l.007.19.022.511c.04.879.187 1.354.311 1.673.165.42.359.72.673 1.035.315.315.615.509 1.036.674.318.124.793.27 1.672.31.19.009.352.016.51.021l.19.007c.478.015.996.022 2.158.023h1.78c1.51-.002 1.839-.013 2.635-.05.878-.04 1.354-.187 1.672-.311.42-.165.72-.359 1.035-.674.315-.314.509-.614.673-1.035.125-.319.271-.794.311-1.673l.052-3.637-.001-1.003c-.003-1.51-.014-1.838-.05-2.634-.04-.879-.187-1.354-.312-1.673a2.804 2.804 0 0 0-.673-1.035 2.804 2.804 0 0 0-1.035-.674c-.318-.124-.794-.27-1.672-.31zm0 2.76a4.621 4.621 0 1 1-.002 9.242A4.621 4.621 0 0 1 16 11.38zM16 13a3 3 0 1 0 0 6.002A3 3 0 1 0 16 13zm4.807-2.883a1.08 1.08 0 1 1 0 2.159 1.08 1.08 0 0 1 0-2.16z" id="e7fv0ocywc"/>
        <path d="M24.596 10.703a6.51 6.51 0 0 1-.867.322c.353-.397.62-.868.782-1.382a.286.286 0 0 0-.097-.31.275.275 0 0 0-.332-.033 6.898 6.898 0 0 1-2.025.803 3.854 3.854 0 0 0-5.605.215 3.873 3.873 0 0 0-.93 3.053A9.98 9.98 0 0 1 8.73 9.76a.28.28 0 0 0-.246-.108.297.297 0 0 0-.225.14 3.883 3.883 0 0 0-.525 1.95c0 .932.332 1.81.921 2.506-.182-.064-.353-.15-.525-.235a.28.28 0 0 0-.289 0 .308.308 0 0 0-.14.246v.054c0 1.392.75 2.635 1.897 3.32a2.526 2.526 0 0 1-.3-.042.262.262 0 0 0-.268.096.27.27 0 0 0-.064.279 3.885 3.885 0 0 0 2.828 2.592 6.871 6.871 0 0 1-3.653 1.04c-.278 0-.546-.022-.814-.043a.312.312 0 0 0-.31.193.29.29 0 0 0 .117.342 10.393 10.393 0 0 0 5.635 1.65c3.932 0 6.396-1.853 7.767-3.407 1.714-1.95 2.69-4.52 2.69-7.06v-.32a7.388 7.388 0 0 0 1.724-1.833.29.29 0 0 0-.022-.353.29.29 0 0 0-.332-.065z" id="fmumw8ddqe"/>
        <path d="m14.141 18.566 4.862-2.484-4.862-2.514v4.998zM16 10c3.786 0 6.298.179 6.298.179.352.04 1.125.04 1.808.755 0 0 .552.536.713 1.769.19 1.44.18 2.882.18 2.882v1.352s.01 1.44-.18 2.882c-.16 1.222-.713 1.768-.713 1.768-.683.706-1.457.706-1.808.746 0 0-2.511.189-6.298.189-4.68-.04-6.117-.18-6.117-.18-.401-.069-1.306-.048-1.989-.755 0 0-.552-.547-.713-1.768-.19-1.441-.18-2.882-.18-2.882v-1.352s-.01-1.441.18-2.882c.16-1.233.713-1.769.713-1.769.683-.716 1.457-.716 1.808-.755 0 0 2.511-.179 6.298-.179z" id="usm8aeevrg"/>
        <path d="M7 16.396V25h4.5V13.3H7v3.096zm17.892.504c-.288-2.232-1.332-3.6-4.5-3.6-1.836 0-3.096.648-3.6 1.584h-.072V13.3H13.3V25h3.6v-5.796c0-1.512.324-2.988 2.304-2.988 1.98 0 2.124 1.728 2.124 3.096V25H25v-6.408c0-.612-.036-1.188-.108-1.692zM9.268 7C8.008 7 7 8.008 7 9.232c0 1.224 1.008 2.232 2.268 2.232A2.22 2.22 0 0 0 11.5 9.232 2.243 2.243 0 0 0 9.268 7z" id="daygvbmkyi"/>
    </defs>
    <g fill="none" fill-rule="evenodd">
        <mask id="lo1q68sz7b" fill="#fff">
            <use xlink:href="#uapeb5281a"/>
        </mask>
        <use fill="#FFF" xlink:href="#uapeb5281a"/>
        <g mask="url(#lo1q68sz7b)" fill="#333">
            <path d="M0 0h32v32H0z"/>
        </g>
        <g transform="translate(45)">
            <mask id="ryc9ubmvwd" fill="#fff">
                <use xlink:href="#e7fv0ocywc"/>
            </mask>
            <use fill="#B620E0" xlink:href="#e7fv0ocywc"/>
            <g mask="url(#ryc9ubmvwd)" fill="#333">
                <path d="M0 0h32v32H0z"/>
            </g>
        </g>
        <g transform="translate(90)">
            <path style=" stroke:none;fill-rule:nonzero;fill:rgb(0%,0%,0%);fill-opacity:1;" d="M 18.929688 13.550781 L 30.773438 0 L 27.964844 0 L 17.683594 11.765625 L 9.472656 0 L 0 0 L 12.417969 17.789062 L 0 32 L 2.804688 32 L 13.664062 19.574219 L 22.335938 32 L 31.808594 32 Z M 15.085938 17.949219 L 13.828125 16.179688 L 3.816406 2.078125 L 8.128906 2.078125 L 16.207031 13.457031 L 17.464844 15.226562 L 27.96875 30.015625 L 23.65625 30.015625 Z M 15.085938 17.949219 "/>
        </g>
        <g transform="translate(135)">
            <mask id="9mxkcbbsvh" fill="#fff">
                <use xlink:href="#usm8aeevrg"/>
            </mask>
            <use fill="#FFF" fill-rule="nonzero" xlink:href="#usm8aeevrg"/>
            <g mask="url(#9mxkcbbsvh)" fill="#333">
                <path d="M0 0h32v32H0z"/>
            </g>
        </g>
        <g transform="translate(180)">
            <mask id="vuc10u4btj" fill="#fff">
                <use xlink:href="#daygvbmkyi"/>
            </mask>
            <use fill="#FFF" fill-rule="nonzero" xlink:href="#daygvbmkyi"/>
            <g mask="url(#vuc10u4btj)" fill="#333">
                <path d="M0 0h32v32H0z"/>
            </g>
        </g>
    </g>
</svg>
