<svg xmlns="http://www.w3.org/2000/svg" width="19.604" height="16.414" viewBox="0 0 19.604 16.414">
  <g id="System_Wifi_Problem" data-name="System / Wifi_Problem" transform="translate(1.413 1.414)">
    <path id="Vector" d="M8.343,14.59a5,5,0,0,1,7.29-.025M6.149,11.544A8,8,0,0,1,11.958,9M3.224,8.816A12,12,0,0,1,11.959,5M16,9l2-2m0,0,2-2M18,7,16,5m2,2,2,2M12,19a1,1,0,1,1,1-1A1,1,0,0,1,12,19Z" transform="translate(-3.224 -5)" fill="none" stroke="#fff" stroke-linecap="round" stroke-linejoin="round" stroke-width="2"/>
  </g>
</svg>
